<?xml version="1.0" encoding="utf-8"?>
<!-- Generator: Adobe Illustrator 27.1.1, SVG Export Plug-In . SVG Version: 6.00 Build 0)  -->
<svg version="1.1" id="Layer_1" xmlns="http://www.w3.org/2000/svg" xmlns:xlink="http://www.w3.org/1999/xlink" x="0px" y="0px"
	 viewBox="0 0 114 20" style="enable-background:new 0 0 114 20;" xml:space="preserve">
<style type="text/css">
	.st0{fill:#FFFFFF;}
</style>
<g>
	<path class="st0" d="M3.92,17.76c-0.72-0.91-1.33-1.98-1.83-3.2s-0.75-2.49-0.75-3.8c0-1.16,0.19-2.26,0.56-3.32
		c0.44-1.23,1.11-2.45,2.02-3.67h0.94C4.28,4.78,3.89,5.5,3.7,5.93C3.4,6.6,3.17,7.3,3,8.03c-0.21,0.91-0.31,1.82-0.31,2.74
		c0,2.33,0.73,4.67,2.18,7H3.92z"/>
	<path class="st0" d="M10.22,14.62v-2.55H5.59v-1.2l4.87-6.92h1.07v6.92h1.44v1.2h-1.44v2.55H10.22z M10.22,10.87V6.06l-3.34,4.81
		H10.22z"/>
	<path class="st0" d="M19.25,14.62h-1.31V6.28c-0.32,0.3-0.73,0.6-1.24,0.9c-0.51,0.3-0.97,0.53-1.38,0.68V6.59
		c0.73-0.34,1.37-0.76,1.92-1.25c0.55-0.49,0.94-0.97,1.16-1.43h0.84V14.62z"/>
	<path class="st0" d="M23.83,17.76h-0.94c1.45-2.33,2.18-4.66,2.18-7c0-0.91-0.1-1.82-0.31-2.72c-0.17-0.73-0.4-1.43-0.69-2.1
		c-0.19-0.44-0.58-1.17-1.17-2.18h0.94c0.91,1.22,1.59,2.44,2.02,3.67c0.37,1.06,0.56,2.16,0.56,3.32c0,1.31-0.25,2.58-0.75,3.8
		C25.16,15.78,24.55,16.85,23.83,17.76z"/>
	<path class="st0" d="M31.91,12.16l1.26-0.12c0.11,0.59,0.31,1.02,0.61,1.29s0.69,0.4,1.16,0.4c0.4,0,0.76-0.09,1.06-0.28
		s0.55-0.43,0.75-0.74c0.19-0.31,0.36-0.72,0.49-1.25s0.2-1.06,0.2-1.6c0-0.06,0-0.15-0.01-0.26c-0.26,0.42-0.62,0.76-1.07,1.02
		c-0.45,0.26-0.95,0.39-1.47,0.39c-0.88,0-1.63-0.32-2.24-0.96c-0.61-0.64-0.92-1.48-0.92-2.53c0-1.08,0.32-1.95,0.96-2.61
		s1.44-0.99,2.4-0.99c0.69,0,1.33,0.19,1.9,0.56c0.58,0.37,1.01,0.91,1.31,1.6c0.3,0.69,0.45,1.69,0.45,3
		c0,1.36-0.15,2.45-0.44,3.26c-0.3,0.81-0.74,1.42-1.32,1.85c-0.58,0.42-1.27,0.63-2.06,0.63c-0.83,0-1.52-0.23-2.05-0.7
		C32.33,13.65,32.01,13,31.91,12.16z M37.27,7.45c0-0.75-0.2-1.35-0.6-1.79c-0.4-0.44-0.88-0.66-1.44-0.66
		c-0.58,0-1.09,0.24-1.52,0.71s-0.65,1.09-0.65,1.85c0,0.68,0.21,1.23,0.62,1.66c0.41,0.42,0.92,0.64,1.52,0.64
		c0.61,0,1.1-0.21,1.5-0.64C37.08,8.79,37.27,8.2,37.27,7.45z"/>
	<path class="st0" d="M46.16,8.84c-0.54-0.2-0.95-0.48-1.21-0.85c-0.26-0.37-0.39-0.81-0.39-1.32c0-0.78,0.28-1.43,0.84-1.96
		c0.56-0.53,1.3-0.79,2.23-0.79c0.93,0,1.68,0.27,2.25,0.81s0.85,1.2,0.85,1.98c0,0.5-0.13,0.93-0.39,1.29
		c-0.26,0.37-0.65,0.65-1.18,0.85c0.66,0.21,1.15,0.56,1.5,1.03c0.34,0.48,0.51,1.04,0.51,1.7c0,0.91-0.32,1.68-0.97,2.3
		s-1.49,0.93-2.55,0.93s-1.9-0.31-2.55-0.94c-0.65-0.62-0.97-1.4-0.97-2.33c0-0.69,0.18-1.27,0.53-1.74
		C45.01,9.33,45.51,9.01,46.16,8.84z M45.48,11.55c0,0.37,0.09,0.74,0.27,1.08c0.18,0.35,0.44,0.62,0.79,0.81
		c0.35,0.19,0.73,0.29,1.13,0.29c0.63,0,1.14-0.2,1.55-0.6c0.41-0.4,0.61-0.91,0.61-1.54c0-0.63-0.21-1.15-0.63-1.57
		c-0.42-0.41-0.94-0.62-1.58-0.62c-0.62,0-1.13,0.2-1.53,0.61C45.68,10.42,45.48,10.93,45.48,11.55z M45.9,6.62
		c0,0.5,0.16,0.92,0.49,1.24s0.75,0.48,1.27,0.48c0.5,0,0.92-0.16,1.24-0.48c0.32-0.32,0.48-0.71,0.48-1.17
		c0-0.48-0.17-0.88-0.5-1.21s-0.75-0.49-1.24-0.49c-0.5,0-0.91,0.16-1.24,0.48S45.9,6.17,45.9,6.62z"/>
	<path class="st0" d="M52.52,5.35V4.09h6.91v1.02c-0.68,0.72-1.35,1.68-2.02,2.88s-1.18,2.43-1.55,3.7
		c-0.26,0.89-0.43,1.87-0.5,2.93h-1.35c0.01-0.84,0.18-1.85,0.5-3.04s0.77-2.34,1.36-3.44c0.59-1.1,1.22-2.03,1.88-2.79H52.52z"/>
	<path class="st0" d="M60.73,11.83l1.38-0.12c0.1,0.67,0.34,1.17,0.71,1.51c0.37,0.34,0.82,0.51,1.34,0.51
		c0.63,0,1.16-0.24,1.6-0.71c0.44-0.48,0.65-1.11,0.65-1.89c0-0.75-0.21-1.34-0.63-1.77c-0.42-0.43-0.97-0.65-1.65-0.65
		c-0.42,0-0.8,0.1-1.14,0.29c-0.34,0.19-0.61,0.44-0.8,0.75l-1.23-0.16l1.03-5.48h5.31v1.25h-4.26l-0.58,2.87
		c0.64-0.45,1.31-0.67,2.02-0.67c0.93,0,1.72,0.32,2.36,0.97s0.96,1.48,0.96,2.49c0,0.97-0.28,1.8-0.84,2.5
		c-0.68,0.86-1.62,1.3-2.8,1.3c-0.97,0-1.76-0.27-2.38-0.82C61.17,13.45,60.81,12.73,60.73,11.83z"/>
	<path class="st0" d="M69.11,5.35V4.09h6.91v1.02C75.33,5.83,74.66,6.79,74,7.99c-0.67,1.2-1.18,2.43-1.55,3.7
		c-0.26,0.89-0.43,1.87-0.5,2.93H70.6c0.01-0.84,0.18-1.85,0.5-3.04s0.77-2.34,1.36-3.44c0.59-1.1,1.22-2.03,1.88-2.79H69.11z"/>
	<path class="st0" d="M81.46,11.81l1.31-0.17c0.15,0.74,0.41,1.28,0.77,1.61s0.8,0.49,1.32,0.49c0.62,0,1.14-0.21,1.56-0.64
		s0.64-0.96,0.64-1.59c0-0.6-0.2-1.1-0.59-1.49c-0.39-0.39-0.89-0.59-1.5-0.59c-0.25,0-0.56,0.05-0.92,0.15l0.15-1.15
		c0.09,0.01,0.16,0.01,0.21,0.01c0.56,0,1.06-0.15,1.51-0.44c0.45-0.29,0.67-0.74,0.67-1.35c0-0.48-0.16-0.88-0.49-1.19
		s-0.75-0.47-1.26-0.47c-0.51,0-0.93,0.16-1.27,0.48S83,6.27,82.9,6.91l-1.31-0.23c0.16-0.88,0.52-1.56,1.09-2.04
		c0.57-0.48,1.27-0.72,2.12-0.72c0.58,0,1.12,0.12,1.61,0.38s0.87,0.59,1.12,1.02s0.39,0.89,0.39,1.38c0,0.46-0.12,0.88-0.37,1.26
		c-0.25,0.38-0.61,0.68-1.1,0.9c0.63,0.15,1.12,0.45,1.47,0.91c0.35,0.46,0.52,1.03,0.52,1.72c0,0.93-0.34,1.72-1.02,2.37
		c-0.68,0.65-1.54,0.97-2.58,0.97c-0.94,0-1.71-0.28-2.33-0.84C81.9,13.42,81.55,12.7,81.46,11.81z"/>
	<path class="st0" d="M96.63,13.37v1.26h-7.05c-0.01-0.32,0.04-0.62,0.15-0.91c0.18-0.48,0.47-0.95,0.86-1.42s0.97-1,1.71-1.62
		c1.16-0.95,1.94-1.7,2.35-2.26c0.41-0.56,0.61-1.08,0.61-1.58c0-0.52-0.19-0.96-0.56-1.31c-0.37-0.36-0.86-0.54-1.45-0.54
		c-0.63,0-1.14,0.19-1.51,0.57c-0.38,0.38-0.57,0.9-0.58,1.57L89.82,7c0.09-1,0.44-1.77,1.04-2.3c0.6-0.53,1.41-0.79,2.42-0.79
		c1.02,0,1.83,0.28,2.43,0.85c0.6,0.57,0.9,1.27,0.9,2.11c0,0.43-0.09,0.85-0.26,1.26c-0.17,0.41-0.46,0.85-0.87,1.3
		s-1.08,1.08-2.02,1.88c-0.79,0.66-1.29,1.11-1.51,1.34c-0.22,0.24-0.41,0.47-0.55,0.71H96.63z"/>
	<path class="st0" d="M104.92,13.37v1.26h-7.05c-0.01-0.32,0.04-0.62,0.15-0.91c0.18-0.48,0.47-0.95,0.86-1.42s0.97-1,1.71-1.62
		c1.16-0.95,1.94-1.7,2.35-2.26c0.41-0.56,0.61-1.08,0.61-1.58c0-0.52-0.19-0.96-0.56-1.31c-0.37-0.36-0.86-0.54-1.45-0.54
		c-0.63,0-1.14,0.19-1.51,0.57c-0.38,0.38-0.57,0.9-0.58,1.57L98.12,7c0.09-1,0.44-1.77,1.04-2.3c0.6-0.53,1.41-0.79,2.42-0.79
		c1.02,0,1.83,0.28,2.43,0.85c0.6,0.57,0.9,1.27,0.9,2.11c0,0.43-0.09,0.85-0.26,1.26c-0.17,0.41-0.46,0.85-0.87,1.3
		s-1.08,1.08-2.02,1.88c-0.79,0.66-1.29,1.11-1.51,1.34c-0.22,0.24-0.41,0.47-0.55,0.71H104.92z"/>
	<path class="st0" d="M106.33,11.81l1.31-0.17c0.15,0.74,0.41,1.28,0.77,1.61s0.8,0.49,1.32,0.49c0.62,0,1.14-0.21,1.56-0.64
		s0.64-0.96,0.64-1.59c0-0.6-0.2-1.1-0.59-1.49c-0.39-0.39-0.89-0.59-1.5-0.59c-0.25,0-0.56,0.05-0.92,0.15l0.15-1.15
		c0.09,0.01,0.16,0.01,0.21,0.01c0.56,0,1.06-0.15,1.51-0.44c0.45-0.29,0.67-0.74,0.67-1.35c0-0.48-0.16-0.88-0.49-1.19
		s-0.75-0.47-1.26-0.47c-0.51,0-0.93,0.16-1.27,0.48s-0.56,0.8-0.66,1.44l-1.31-0.23c0.16-0.88,0.52-1.56,1.09-2.04
		c0.57-0.48,1.27-0.72,2.12-0.72c0.58,0,1.12,0.12,1.61,0.38s0.87,0.59,1.12,1.02s0.39,0.89,0.39,1.38c0,0.46-0.12,0.88-0.37,1.26
		c-0.25,0.38-0.61,0.68-1.1,0.9c0.63,0.15,1.12,0.45,1.47,0.91c0.35,0.46,0.52,1.03,0.52,1.72c0,0.93-0.34,1.72-1.02,2.37
		c-0.68,0.65-1.54,0.97-2.58,0.97c-0.94,0-1.71-0.28-2.33-0.84C106.77,13.42,106.42,12.7,106.33,11.81z"/>
</g>
<g>
</g>
<g>
</g>
<g>
</g>
<g>
</g>
<g>
</g>
<g>
</g>
<g>
</g>
<g>
</g>
<g>
</g>
<g>
</g>
<g>
</g>
<g>
</g>
<g>
</g>
<g>
</g>
<g>
</g>
</svg>
